<svg width="12" height="12" viewBox="0 0 12 12" fill="none" xmlns="http://www.w3.org/2000/svg">
<path d="M5.43977 0.92561C5.61611 0.35813 6.38389 0.35813 6.56023 0.92561L7.45477 3.80441C7.53363 4.05819 7.75981 4.23002 8.015 4.23002H10.9098C11.4804 4.23002 11.7177 4.99356 11.2561 5.34428L8.9141 7.12347C8.70764 7.28032 8.62125 7.55834 8.70011 7.81212L9.59466 10.6909C9.77099 11.2584 9.14984 11.7303 8.68819 11.3796L6.34624 9.60038C6.13978 9.44353 5.86022 9.44353 5.65376 9.60038L3.31181 11.3796C2.85016 11.7303 2.229 11.2584 2.40534 10.6909L3.29988 7.81212C3.37874 7.55834 3.29235 7.28032 3.0859 7.12347L0.743948 5.34428C0.282294 4.99356 0.519553 4.23002 1.09019 4.23002H3.985C4.24019 4.23002 4.46637 4.05819 4.54523 3.80441L5.43977 0.92561Z" stroke="#AFB5C0"/>
</svg>
